<mxfile host="app.diagrams.net" modified="2024-05-13T10:28:02.627Z" agent="Mozilla/5.0 (Windows NT 10.0; Win64; x64) AppleWebKit/537.36 (KHTML, like Gecko) Chrome/124.0.0.0 Safari/537.36" etag="A6HoNzMYlSEWIm5TXuH1" version="24.4.0" type="device">
  <diagram name="Page-1" id="7Z_8-LKe8qln8inUE9Ba">
    <mxGraphModel dx="880" dy="478" grid="1" gridSize="10" guides="1" tooltips="1" connect="1" arrows="1" fold="1" page="1" pageScale="1" pageWidth="850" pageHeight="1100" math="0" shadow="0">
      <root>
        <mxCell id="0" />
        <mxCell id="1" parent="0" />
        <mxCell id="PfmJWYZdgfimSLV4tNpU-6" style="edgeStyle=orthogonalEdgeStyle;rounded=0;orthogonalLoop=1;jettySize=auto;html=1;entryX=0;entryY=0.5;entryDx=0;entryDy=0;" parent="1" source="PfmJWYZdgfimSLV4tNpU-1" target="PfmJWYZdgfimSLV4tNpU-2" edge="1">
          <mxGeometry relative="1" as="geometry" />
        </mxCell>
        <mxCell id="PfmJWYZdgfimSLV4tNpU-8" style="edgeStyle=orthogonalEdgeStyle;rounded=0;orthogonalLoop=1;jettySize=auto;html=1;" parent="1" source="PfmJWYZdgfimSLV4tNpU-2" target="PfmJWYZdgfimSLV4tNpU-4" edge="1">
          <mxGeometry relative="1" as="geometry" />
        </mxCell>
        <mxCell id="PfmJWYZdgfimSLV4tNpU-2" value="Order Proceed&lt;div&gt;service 1&amp;nbsp;&lt;/div&gt;" style="rounded=1;whiteSpace=wrap;html=1;" parent="1" vertex="1">
          <mxGeometry x="318" y="158" width="120" height="60" as="geometry" />
        </mxCell>
        <mxCell id="PfmJWYZdgfimSLV4tNpU-4" value="DB" style="shape=cylinder3;whiteSpace=wrap;html=1;boundedLbl=1;backgroundOutline=1;size=15;" parent="1" vertex="1">
          <mxGeometry x="640" y="210" width="60" height="80" as="geometry" />
        </mxCell>
        <mxCell id="PfmJWYZdgfimSLV4tNpU-9" style="edgeStyle=orthogonalEdgeStyle;rounded=0;orthogonalLoop=1;jettySize=auto;html=1;entryX=0.5;entryY=1;entryDx=0;entryDy=0;entryPerimeter=0;" parent="1" source="PfmJWYZdgfimSLV4tNpU-3" target="PfmJWYZdgfimSLV4tNpU-4" edge="1">
          <mxGeometry relative="1" as="geometry" />
        </mxCell>
        <mxCell id="PfmJWYZdgfimSLV4tNpU-11" value="" style="shape=flexArrow;endArrow=classic;startArrow=classic;html=1;rounded=0;entryX=0.5;entryY=1;entryDx=0;entryDy=0;exitX=0.5;exitY=0;exitDx=0;exitDy=0;" parent="1" source="PfmJWYZdgfimSLV4tNpU-3" target="PfmJWYZdgfimSLV4tNpU-2" edge="1">
          <mxGeometry width="100" height="100" relative="1" as="geometry">
            <mxPoint x="370" y="330" as="sourcePoint" />
            <mxPoint x="470" y="230" as="targetPoint" />
          </mxGeometry>
        </mxCell>
        <mxCell id="PfmJWYZdgfimSLV4tNpU-12" value="Restfull api" style="text;html=1;align=center;verticalAlign=middle;whiteSpace=wrap;rounded=0;" parent="1" vertex="1">
          <mxGeometry x="335" y="120" width="90" height="30" as="geometry" />
        </mxCell>
        <mxCell id="-s6Xuc3hXYx2sMO6KCPq-1" value="" style="swimlane;startSize=0;" parent="1" vertex="1">
          <mxGeometry x="50" y="80" width="700" height="330" as="geometry" />
        </mxCell>
        <mxCell id="-s6Xuc3hXYx2sMO6KCPq-2" value="Tightly coupled Architecture" style="text;html=1;align=center;verticalAlign=middle;whiteSpace=wrap;rounded=0;" parent="-s6Xuc3hXYx2sMO6KCPq-1" vertex="1">
          <mxGeometry x="255" y="10" width="190" height="30" as="geometry" />
        </mxCell>
        <mxCell id="PfmJWYZdgfimSLV4tNpU-1" value="Client" style="whiteSpace=wrap;html=1;aspect=fixed;" parent="-s6Xuc3hXYx2sMO6KCPq-1" vertex="1">
          <mxGeometry x="30" y="160" width="80" height="80" as="geometry" />
        </mxCell>
        <mxCell id="PfmJWYZdgfimSLV4tNpU-3" value="&lt;div&gt;Distribution&lt;/div&gt;service 2" style="rounded=1;whiteSpace=wrap;html=1;" parent="-s6Xuc3hXYx2sMO6KCPq-1" vertex="1">
          <mxGeometry x="268" y="240" width="120" height="60" as="geometry" />
        </mxCell>
        <mxCell id="-s6Xuc3hXYx2sMO6KCPq-10" value="" style="swimlane;startSize=0;" parent="1" vertex="1">
          <mxGeometry x="40" y="510" width="800" height="400" as="geometry" />
        </mxCell>
        <mxCell id="-s6Xuc3hXYx2sMO6KCPq-7" value="&lt;h1 style=&quot;margin-top: 0px; line-height: 70%;&quot;&gt;&lt;span style=&quot;background-color: initial;&quot;&gt;Kafka&lt;/span&gt;&lt;/h1&gt;&lt;h1 style=&quot;margin-top: 0px; line-height: 70%;&quot;&gt;&lt;span style=&quot;font-size: 12px; font-weight: 400;&quot;&gt;Kafka provide us event streaming through the Topic. Producer send data to topic and consumer retrive data from topic. Kafka can handle Millions of events per second&lt;/span&gt;&lt;/h1&gt;&lt;div style=&quot;line-height: 70%;&quot;&gt;&lt;h1 style=&quot;margin-top: 0px; line-height: 70%;&quot;&gt;&lt;span style=&quot;background-color: initial;&quot;&gt;Topic&lt;/span&gt;&lt;/h1&gt;&lt;/div&gt;&lt;div style=&quot;line-height: 70%;&quot;&gt;Imagine in DB we store data in tables. Also in Topic we also store data.&lt;/div&gt;&lt;div style=&quot;line-height: 70%;&quot;&gt;&lt;br&gt;&lt;/div&gt;&lt;div style=&quot;line-height: 70%;&quot;&gt;&lt;br&gt;&lt;/div&gt;&lt;div style=&quot;line-height: 70%;&quot;&gt;&lt;h1 style=&quot;margin-top: 0px; line-height: 70%;&quot;&gt;&lt;span style=&quot;background-color: initial;&quot;&gt;Producer&lt;/span&gt;&lt;/h1&gt;&lt;/div&gt;&lt;div style=&quot;line-height: 100%;&quot;&gt;&lt;span style=&quot;background-color: initial;&quot;&gt;Producer recive data in chunks and send to topic. It generate events and write on topic. And it will&amp;nbsp;&lt;/span&gt;&lt;/div&gt;" style="text;html=1;whiteSpace=wrap;overflow=hidden;rounded=0;" parent="-s6Xuc3hXYx2sMO6KCPq-10" vertex="1">
          <mxGeometry x="320" y="69" width="460" height="262" as="geometry" />
        </mxCell>
        <mxCell id="-s6Xuc3hXYx2sMO6KCPq-11" value="Event Driven Architecture" style="text;html=1;align=center;verticalAlign=middle;whiteSpace=wrap;rounded=0;" parent="-s6Xuc3hXYx2sMO6KCPq-10" vertex="1">
          <mxGeometry x="240" y="18" width="170" height="30" as="geometry" />
        </mxCell>
        <mxCell id="-s6Xuc3hXYx2sMO6KCPq-12" value="Loosely couple" style="text;html=1;align=center;verticalAlign=middle;whiteSpace=wrap;rounded=0;" parent="-s6Xuc3hXYx2sMO6KCPq-10" vertex="1">
          <mxGeometry x="277.5" width="95" height="30" as="geometry" />
        </mxCell>
        <mxCell id="-s6Xuc3hXYx2sMO6KCPq-6" value="Kafka" style="text;html=1;align=center;verticalAlign=middle;whiteSpace=wrap;rounded=0;fillColor=#6d8764;fontColor=#ffffff;strokeColor=#3A5431;" parent="-s6Xuc3hXYx2sMO6KCPq-10" vertex="1">
          <mxGeometry x="30" y="195" width="60" height="30" as="geometry" />
        </mxCell>
        <mxCell id="-s6Xuc3hXYx2sMO6KCPq-13" value="Generate&lt;div&gt;Events&lt;/div&gt;" style="text;html=1;align=center;verticalAlign=middle;whiteSpace=wrap;rounded=0;fillColor=#e1d5e7;strokeColor=#9673a6;" parent="-s6Xuc3hXYx2sMO6KCPq-10" vertex="1">
          <mxGeometry x="30" y="65" width="60" height="30" as="geometry" />
        </mxCell>
        <mxCell id="-s6Xuc3hXYx2sMO6KCPq-19" style="edgeStyle=orthogonalEdgeStyle;rounded=0;orthogonalLoop=1;jettySize=auto;html=1;entryX=0.25;entryY=1;entryDx=0;entryDy=0;" parent="-s6Xuc3hXYx2sMO6KCPq-10" source="-s6Xuc3hXYx2sMO6KCPq-15" target="-s6Xuc3hXYx2sMO6KCPq-5" edge="1">
          <mxGeometry relative="1" as="geometry" />
        </mxCell>
        <mxCell id="-s6Xuc3hXYx2sMO6KCPq-15" value="&lt;div&gt;Distribution&lt;/div&gt;Consumer 0" style="rounded=1;whiteSpace=wrap;html=1;fillColor=#dae8fc;strokeColor=#6c8ebf;" parent="-s6Xuc3hXYx2sMO6KCPq-10" vertex="1">
          <mxGeometry x="10" y="320" width="80" height="40" as="geometry" />
        </mxCell>
        <mxCell id="-s6Xuc3hXYx2sMO6KCPq-18" style="edgeStyle=orthogonalEdgeStyle;rounded=0;orthogonalLoop=1;jettySize=auto;html=1;entryX=0.75;entryY=1;entryDx=0;entryDy=0;" parent="-s6Xuc3hXYx2sMO6KCPq-10" source="-s6Xuc3hXYx2sMO6KCPq-14" target="-s6Xuc3hXYx2sMO6KCPq-5" edge="1">
          <mxGeometry relative="1" as="geometry" />
        </mxCell>
        <mxCell id="-s6Xuc3hXYx2sMO6KCPq-14" value="&lt;div&gt;Distribution&lt;/div&gt;Consumer 02" style="rounded=1;whiteSpace=wrap;html=1;fillColor=#dae8fc;strokeColor=#6c8ebf;" parent="-s6Xuc3hXYx2sMO6KCPq-10" vertex="1">
          <mxGeometry x="210" y="320" width="80" height="40" as="geometry" />
        </mxCell>
        <mxCell id="-s6Xuc3hXYx2sMO6KCPq-4" value="&lt;div&gt;Distribution&lt;/div&gt;Consumer 01" style="rounded=1;whiteSpace=wrap;html=1;fillColor=#dae8fc;strokeColor=#6c8ebf;" parent="-s6Xuc3hXYx2sMO6KCPq-10" vertex="1">
          <mxGeometry x="110" y="320" width="80" height="40" as="geometry" />
        </mxCell>
        <mxCell id="-s6Xuc3hXYx2sMO6KCPq-5" value="Topic" style="rounded=1;whiteSpace=wrap;html=1;fillColor=#6d8764;fontColor=#ffffff;strokeColor=#3A5431;" parent="-s6Xuc3hXYx2sMO6KCPq-10" vertex="1">
          <mxGeometry x="90" y="180" width="120" height="60" as="geometry" />
        </mxCell>
        <mxCell id="-s6Xuc3hXYx2sMO6KCPq-9" style="edgeStyle=orthogonalEdgeStyle;rounded=0;orthogonalLoop=1;jettySize=auto;html=1;entryX=0.5;entryY=1;entryDx=0;entryDy=0;" parent="-s6Xuc3hXYx2sMO6KCPq-10" source="-s6Xuc3hXYx2sMO6KCPq-4" target="-s6Xuc3hXYx2sMO6KCPq-5" edge="1">
          <mxGeometry relative="1" as="geometry" />
        </mxCell>
        <mxCell id="-s6Xuc3hXYx2sMO6KCPq-3" value="Order Proceed&lt;div&gt;Producer&lt;/div&gt;" style="rounded=1;whiteSpace=wrap;html=1;fillColor=#e1d5e7;strokeColor=#9673a6;" parent="-s6Xuc3hXYx2sMO6KCPq-10" vertex="1">
          <mxGeometry x="90" y="50" width="120" height="60" as="geometry" />
        </mxCell>
        <mxCell id="-s6Xuc3hXYx2sMO6KCPq-8" style="edgeStyle=orthogonalEdgeStyle;rounded=0;orthogonalLoop=1;jettySize=auto;html=1;entryX=0.5;entryY=0;entryDx=0;entryDy=0;" parent="-s6Xuc3hXYx2sMO6KCPq-10" source="-s6Xuc3hXYx2sMO6KCPq-3" target="-s6Xuc3hXYx2sMO6KCPq-5" edge="1">
          <mxGeometry relative="1" as="geometry" />
        </mxCell>
      </root>
    </mxGraphModel>
  </diagram>
</mxfile>
